<svg xmlns="http://www.w3.org/2000/svg" viewBox="0 0 800 800">
  <defs>
    <radialGradient id="sh" cx=".5" cy=".5" r=".5">
      <stop offset="0" stop-color="#000" stop-opacity=".7"/>
      <stop offset="1" stop-color="#000" stop-opacity="0"/>
    </radialGradient>
    <linearGradient id="silk" x1="0" x2="1">
      <stop offset="0" stop-color="#6d000c"/>
      <stop offset=".38" stop-color="#c2001a"/>
      <stop offset=".62" stop-color="#8e0012"/>
      <stop offset="1" stop-color="#5c000a"/>
    </linearGradient>
    <linearGradient id="gold" x1="0" y1="0" x2="0" y2="1">
      <stop offset="0" stop-color="#f4dd9a"/>
      <stop offset="1" stop-color="#b8922f"/>
    </linearGradient>
    <clipPath id="omClip">
      <path d="M288 258 L512 258 C520 258 526 264 526 272 L526 598 C526 608 518 616 508 616 L292 616 C282 616 274 608 274 598 L274 272 C274 264 280 258 288 258 Z"/>
    </clipPath>
  </defs>
  <ellipse cx="400" cy="646" rx="170" ry="24" fill="url(#sh)"/>
  <!-- cord -->
  <path d="M340 262 C340 186 460 186 460 262" fill="none" stroke="#c9b06a" stroke-width="7"/>
  <path d="M362 258 C372 226 428 226 438 258" fill="none" stroke="#e5d49a" stroke-width="5"/>
  <circle cx="400" cy="232" r="13" fill="#b8922f"/>
  <!-- pouch -->
  <path d="M288 258 L512 258 C520 258 526 264 526 272 L526 598 C526 608 518 616 508 616 L292 616 C282 616 274 608 274 598 L274 272 C274 264 280 258 288 258 Z" fill="url(#silk)" stroke="#4a0008" stroke-width="2"/>
  <g clip-path="url(#omClip)">
    <g stroke="#ffb3bc" stroke-opacity=".12" stroke-width="1">
      <path d="M274 300 H526 M274 340 H526 M274 380 H526 M274 420 H526 M274 460 H526 M274 500 H526 M274 540 H526 M274 580 H526"/>
    </g>
    <rect x="322" y="286" width="156" height="300" fill="none" stroke="url(#gold)" stroke-width="3"/>
    <text x="400" y="376" text-anchor="middle" font-family="'Noto Sans JP','Hiragino Sans','Yu Gothic','Meiryo',sans-serif" font-weight="900" font-size="54" fill="url(#gold)" letter-spacing="2">交通</text>
    <text x="400" y="436" text-anchor="middle" font-family="'Noto Sans JP','Hiragino Sans','Yu Gothic','Meiryo',sans-serif" font-weight="900" font-size="54" fill="url(#gold)" letter-spacing="2">安全</text>
    <path d="M348 462 H452" stroke="url(#gold)" stroke-width="2"/>
    <g transform="translate(400 506) scale(1.05)">
      <path d="M0 -20 L13 1 A14.5 14.5 0 1 1 -13 1 Z" fill="#f4dd9a"/>
      <text x="0" y="10" text-anchor="middle" font-family="Impact,'Arial Black','Helvetica Neue',Arial,sans-serif" font-weight="900" font-size="8" fill="#6d000c">KTBN</text>
    </g>
    <text x="400" y="556" text-anchor="middle" font-family="'Courier New',monospace" font-size="12" letter-spacing="4" fill="#f2dfa4" fill-opacity=".85">ROWMINE</text>
    <path d="M306 616 V256" stroke="#fff" stroke-opacity=".07" stroke-width="26"/>
  </g>
</svg>
